<mxfile host="app.diagrams.net" modified="2021-02-06T09:44:09.218Z" agent="5.0 (Windows NT 10.0; WOW64) AppleWebKit/537.36 (KHTML, like Gecko) Chrome/78.0.3904.108 Safari/537.36" etag="nLna9KaALTeHkmao8qAa" version="14.2.9" type="github">
  <diagram id="wq-4RE9VYDN46kwsMCa5" name="Page-1">
    <mxGraphModel dx="2249" dy="730" grid="1" gridSize="10" guides="1" tooltips="1" connect="1" arrows="1" fold="1" page="1" pageScale="1" pageWidth="827" pageHeight="1169" math="0" shadow="0">
      <root>
        <mxCell id="0" />
        <mxCell id="1" parent="0" />
        <mxCell id="TXikMqtvK_Iu8I_U-Qio-1" value="client" style="rounded=0;whiteSpace=wrap;html=1;" parent="1" vertex="1">
          <mxGeometry x="-150" y="50" width="120" height="60" as="geometry" />
        </mxCell>
        <mxCell id="KSb_hf4Zm0cLS0f6UTdx-3" style="edgeStyle=orthogonalEdgeStyle;rounded=0;orthogonalLoop=1;jettySize=auto;html=1;" parent="1" source="KSb_hf4Zm0cLS0f6UTdx-1" target="KSb_hf4Zm0cLS0f6UTdx-2" edge="1">
          <mxGeometry relative="1" as="geometry" />
        </mxCell>
        <mxCell id="KSb_hf4Zm0cLS0f6UTdx-1" value="server" style="ellipse;whiteSpace=wrap;html=1;" parent="1" vertex="1">
          <mxGeometry x="260" y="40" width="120" height="80" as="geometry" />
        </mxCell>
        <mxCell id="KSb_hf4Zm0cLS0f6UTdx-10" style="edgeStyle=orthogonalEdgeStyle;rounded=0;orthogonalLoop=1;jettySize=auto;html=1;entryX=0.5;entryY=0;entryDx=0;entryDy=0;" parent="1" source="KSb_hf4Zm0cLS0f6UTdx-2" target="KSb_hf4Zm0cLS0f6UTdx-8" edge="1">
          <mxGeometry relative="1" as="geometry" />
        </mxCell>
        <mxCell id="KSb_hf4Zm0cLS0f6UTdx-11" style="edgeStyle=orthogonalEdgeStyle;rounded=0;orthogonalLoop=1;jettySize=auto;html=1;entryX=0.5;entryY=0;entryDx=0;entryDy=0;" parent="1" source="KSb_hf4Zm0cLS0f6UTdx-2" target="KSb_hf4Zm0cLS0f6UTdx-7" edge="1">
          <mxGeometry relative="1" as="geometry" />
        </mxCell>
        <mxCell id="KSb_hf4Zm0cLS0f6UTdx-12" style="edgeStyle=orthogonalEdgeStyle;rounded=0;orthogonalLoop=1;jettySize=auto;html=1;entryX=0.5;entryY=0;entryDx=0;entryDy=0;" parent="1" source="KSb_hf4Zm0cLS0f6UTdx-2" target="KSb_hf4Zm0cLS0f6UTdx-9" edge="1">
          <mxGeometry relative="1" as="geometry" />
        </mxCell>
        <mxCell id="KSb_hf4Zm0cLS0f6UTdx-2" value="reactor" style="ellipse;whiteSpace=wrap;html=1;" parent="1" vertex="1">
          <mxGeometry x="260" y="150" width="120" height="60" as="geometry" />
        </mxCell>
        <mxCell id="VX6klwPQggEYZWz3Kz0s-6" style="edgeStyle=orthogonalEdgeStyle;rounded=0;orthogonalLoop=1;jettySize=auto;html=1;entryX=0.417;entryY=0;entryDx=0;entryDy=0;entryPerimeter=0;" edge="1" parent="1" source="KSb_hf4Zm0cLS0f6UTdx-7" target="VX6klwPQggEYZWz3Kz0s-3">
          <mxGeometry relative="1" as="geometry" />
        </mxCell>
        <mxCell id="VX6klwPQggEYZWz3Kz0s-7" style="edgeStyle=orthogonalEdgeStyle;rounded=0;orthogonalLoop=1;jettySize=auto;html=1;" edge="1" parent="1" source="KSb_hf4Zm0cLS0f6UTdx-7" target="VX6klwPQggEYZWz3Kz0s-4">
          <mxGeometry relative="1" as="geometry" />
        </mxCell>
        <mxCell id="KSb_hf4Zm0cLS0f6UTdx-7" value="selector&lt;br&gt;" style="ellipse;whiteSpace=wrap;html=1;" parent="1" vertex="1">
          <mxGeometry y="270" width="120" height="80" as="geometry" />
        </mxCell>
        <mxCell id="KSb_hf4Zm0cLS0f6UTdx-8" value="主selector&lt;br&gt;accept" style="ellipse;whiteSpace=wrap;html=1;" parent="1" vertex="1">
          <mxGeometry x="260" y="270" width="120" height="80" as="geometry" />
        </mxCell>
        <mxCell id="KSb_hf4Zm0cLS0f6UTdx-9" value="selector" style="ellipse;whiteSpace=wrap;html=1;" parent="1" vertex="1">
          <mxGeometry x="510" y="270" width="120" height="80" as="geometry" />
        </mxCell>
        <mxCell id="KSb_hf4Zm0cLS0f6UTdx-13" value="client" style="rounded=0;whiteSpace=wrap;html=1;" parent="1" vertex="1">
          <mxGeometry x="-140" y="60" width="120" height="60" as="geometry" />
        </mxCell>
        <mxCell id="KSb_hf4Zm0cLS0f6UTdx-16" value="client" style="rounded=0;whiteSpace=wrap;html=1;" parent="1" vertex="1">
          <mxGeometry x="-130" y="70" width="120" height="60" as="geometry" />
        </mxCell>
        <mxCell id="KSb_hf4Zm0cLS0f6UTdx-17" value="client" style="rounded=0;whiteSpace=wrap;html=1;" parent="1" vertex="1">
          <mxGeometry x="-120" y="80" width="120" height="60" as="geometry" />
        </mxCell>
        <mxCell id="KSb_hf4Zm0cLS0f6UTdx-18" value="client" style="rounded=0;whiteSpace=wrap;html=1;" parent="1" vertex="1">
          <mxGeometry x="-110" y="90" width="120" height="60" as="geometry" />
        </mxCell>
        <mxCell id="KSb_hf4Zm0cLS0f6UTdx-19" value="client" style="rounded=0;whiteSpace=wrap;html=1;" parent="1" vertex="1">
          <mxGeometry x="-100" y="100" width="120" height="60" as="geometry" />
        </mxCell>
        <mxCell id="KSb_hf4Zm0cLS0f6UTdx-20" value="client" style="rounded=0;whiteSpace=wrap;html=1;" parent="1" vertex="1">
          <mxGeometry x="-90" y="110" width="120" height="60" as="geometry" />
        </mxCell>
        <mxCell id="KSb_hf4Zm0cLS0f6UTdx-22" style="edgeStyle=orthogonalEdgeStyle;rounded=0;orthogonalLoop=1;jettySize=auto;html=1;" parent="1" source="KSb_hf4Zm0cLS0f6UTdx-21" target="KSb_hf4Zm0cLS0f6UTdx-1" edge="1">
          <mxGeometry relative="1" as="geometry">
            <Array as="points">
              <mxPoint x="-20" y="80" />
            </Array>
          </mxGeometry>
        </mxCell>
        <mxCell id="KSb_hf4Zm0cLS0f6UTdx-21" value="client" style="rounded=0;whiteSpace=wrap;html=1;" parent="1" vertex="1">
          <mxGeometry x="-80" y="120" width="120" height="60" as="geometry" />
        </mxCell>
        <mxCell id="KSb_hf4Zm0cLS0f6UTdx-23" value="扩容机制&lt;br&gt;" style="rounded=0;whiteSpace=wrap;html=1;" parent="1" vertex="1">
          <mxGeometry x="700" y="280" width="120" height="60" as="geometry" />
        </mxCell>
        <mxCell id="KSb_hf4Zm0cLS0f6UTdx-24" value="................" style="rounded=1;whiteSpace=wrap;html=1;" parent="1" vertex="1">
          <mxGeometry x="140" y="295" width="110" height="30" as="geometry" />
        </mxCell>
        <mxCell id="KSb_hf4Zm0cLS0f6UTdx-25" value="................" style="rounded=1;whiteSpace=wrap;html=1;" parent="1" vertex="1">
          <mxGeometry x="390" y="295" width="110" height="30" as="geometry" />
        </mxCell>
        <mxCell id="KSb_hf4Zm0cLS0f6UTdx-32" value="socketChannel" style="ellipse;whiteSpace=wrap;html=1;" parent="1" vertex="1">
          <mxGeometry x="-110" y="650" width="120" height="80" as="geometry" />
        </mxCell>
        <mxCell id="VX6klwPQggEYZWz3Kz0s-2" style="edgeStyle=orthogonalEdgeStyle;rounded=0;orthogonalLoop=1;jettySize=auto;html=1;entryX=0;entryY=0;entryDx=0;entryDy=0;" edge="1" parent="1" source="VX6klwPQggEYZWz3Kz0s-1" target="KSb_hf4Zm0cLS0f6UTdx-7">
          <mxGeometry relative="1" as="geometry" />
        </mxCell>
        <mxCell id="VX6klwPQggEYZWz3Kz0s-1" value="分发线程&lt;br&gt;一个线程对应一个selector" style="rounded=1;whiteSpace=wrap;html=1;" vertex="1" parent="1">
          <mxGeometry x="-340" y="180" width="120" height="60" as="geometry" />
        </mxCell>
        <mxCell id="VX6klwPQggEYZWz3Kz0s-15" style="edgeStyle=orthogonalEdgeStyle;rounded=0;orthogonalLoop=1;jettySize=auto;html=1;" edge="1" parent="1" source="VX6klwPQggEYZWz3Kz0s-3" target="KSb_hf4Zm0cLS0f6UTdx-32">
          <mxGeometry relative="1" as="geometry" />
        </mxCell>
        <mxCell id="VX6klwPQggEYZWz3Kz0s-3" value="read" style="ellipse;whiteSpace=wrap;html=1;" vertex="1" parent="1">
          <mxGeometry x="-110" y="540" width="120" height="80" as="geometry" />
        </mxCell>
        <mxCell id="VX6klwPQggEYZWz3Kz0s-4" value="write" style="ellipse;whiteSpace=wrap;html=1;" vertex="1" parent="1">
          <mxGeometry x="110" y="540" width="120" height="80" as="geometry" />
        </mxCell>
      </root>
    </mxGraphModel>
  </diagram>
</mxfile>
